#N canvas 260 273 656 488 12;
#X obj 97 130 jam 180 100, f 16;
#X obj 43 60 metro 5.55;
#X obj 43 15 tgl 19 0 empty empty empty 0 -10 0 12 #fcfcfc #000000 #000000 0 1;
#X msg 127 59 load /Users/owen/repos/Jam/pdjam/jam.lua;
#X obj 360 111 unpack 0 0 0 0;
#X obj 360 142 makenote;
#X obj 360 175 pack;
#X obj 360 199 s notes;
#X msg 142 90 load jam.lua;
#X obj 96 161 list trim;
#X obj 96 185 route note;
#X obj 96 209 print;
#X obj 217 179 print LINFO;
#X msg 221 19 list note 51 103;
#X connect 0 0 9 0;
#X connect 0 1 12 0;
#X connect 1 0 0 0;
#X connect 2 0 1 0;
#X connect 3 0 0 0;
#X connect 4 0 5 0;
#X connect 4 1 5 1;
#X connect 4 2 5 2;
#X connect 5 0 6 0;
#X connect 5 1 6 1;
#X connect 6 0 7 0;
#X connect 8 0 0 0;
#X connect 9 0 10 0;
#X connect 10 0 11 0;
#X connect 13 0 0 0;
