#N canvas 87 522 550 353 12;
#X obj 97 130 jam 180 100, f 16;
#X obj 40 64 metro 5.55;
#X obj 49 25 tgl 19 0 empty empty empty 0 -10 0 12 #fcfcfc #000000 #000000 0 1;
#X obj 91 250 print;
#X msg 142 69 load /Users/owen/repos/Jam/pdjam/jam.lua;
#X obj 162 170 unpack 0 0 0 0;
#X obj 159 200 makenote;
#X obj 159 233 pack;
#X obj 159 257 s notes;
#X connect 0 0 5 0;
#X connect 1 0 0 0;
#X connect 2 0 1 0;
#X connect 4 0 0 0;
#X connect 5 0 6 0;
#X connect 5 1 6 1;
#X connect 5 2 6 2;
#X connect 6 0 7 0;
#X connect 6 1 7 1;
#X connect 7 0 8 0;
